<svg width="32" height="32" viewBox="0 0 32 32" fill="none" xmlns="http://www.w3.org/2000/svg">
<g opacity="0.65">
<path fill-rule="evenodd" clip-rule="evenodd" d="M15.0969 5.68116C14.3712 4.88687 9.39975 3.46973 7.1826 7.8983C3.10832 7.46401 0.0511753 11.704 2.71403 14.7554C2.77145 14.0203 2.98371 13.3056 3.33689 12.6583C3.87907 11.7052 4.66113 10.9106 5.60541 10.3532C6.54969 9.79587 7.62334 9.49523 8.71975 9.48116C9.26692 8.59603 10.0208 7.85697 10.9166 7.32746C11.8124 6.79794 12.8233 6.4938 13.8626 6.44116C14.7395 6.39155 15.6185 6.49007 16.4626 6.73258C16.7968 6.82723 17.1219 6.95153 17.434 7.10401C18.7653 6.45456 20.2333 6.13508 21.714 6.17258C22.0993 6.19611 22.4817 6.25348 22.8569 6.34401C21.5655 4.78973 19.1426 3.61258 15.0969 5.68116Z" fill="#1677FF"/>
</g>
<path d="M9.43972 10.7555C11.6569 6.32688 16.6283 7.74403 17.354 8.5726C24.1597 5.05831 26.3712 10.7555 26.3712 12.0012C27.6397 12.0012 30.4854 12.7897 30.4854 15.9555C30.4854 19.1212 27.0054 20.2297 26.3712 20.3897C25.1083 24.9612 20.1483 24.0812 17.8283 23.0755C16.194 24.2183 12.7312 26.6869 11.9712 27.1897C11.2112 27.6926 10.9197 27.1897 10.8626 26.8755V22.624C6.43401 22.784 5.55401 19.2983 5.79972 18.3555C1.77686 15.3383 5.01115 10.2869 9.43972 10.7555Z" fill="#1677FF"/>
<path d="M12.8799 14.7097C12.8805 15.6836 13.2018 16.6302 13.794 17.4034C14.3863 18.1765 15.2166 18.7332 16.1567 18.9874C17.0968 19.2416 18.0945 19.1792 18.9957 18.8099C19.8969 18.4406 20.6514 17.7849 21.1427 16.944C21.5239 16.276 21.7211 15.5188 21.7142 14.7497L12.8799 14.7097Z" fill="white"/>
</svg>
