<svg xmlns="http://www.w3.org/2000/svg" viewBox="0 0 189.31 40"><defs><style>.cls-1{opacity:0.65;}.cls-2,.cls-3{fill:#1677ff;}.cls-2{fill-rule:evenodd;}.cls-4{fill:#fff;}</style></defs><g id="图层_2" data-name="图层 2"><g id="图层_1-2" data-name="图层 1"><g class="cls-1"><path class="cls-2" d="M23.42,1.94C22.15.55,13.45-1.93,9.57,5.82c-7.13-.76-12.48,6.66-7.82,12a9.15,9.15,0,0,1,1.09-3.67,11,11,0,0,1,9.42-5.56,11.25,11.25,0,0,1,9-5.32,13.68,13.68,0,0,1,4.55.51,10.21,10.21,0,0,1,1.7.65A16.15,16.15,0,0,1,35,2.8a11.52,11.52,0,0,1,2,.3C34.74.38,30.5-1.68,23.42,1.94Z"/></g><path class="cls-3" d="M13.52,10.82C17.4,3.07,26.1,5.55,27.37,7,39.28.85,43.15,10.82,43.15,13c2.22,0,7.2,1.38,7.2,6.92s-6.09,7.48-7.2,7.76c-2.21,8-10.89,6.46-14.95,4.7-2.86,2-8.92,6.32-10.25,7.2s-1.84,0-1.94-.55V31.59c-7.75.28-9.29-5.82-8.86-7.47C.11,18.84,5.77,10,13.52,10.82Z"/><path class="cls-4" d="M19.54,17.74A7.76,7.76,0,0,0,34,21.65a7.61,7.61,0,0,0,1-3.84Z"/><path d="M78.47,31.6H75.76a1.5,1.5,0,0,1-1.39-.94l-2.84-7h-7.9l-2.77,7a1.51,1.51,0,0,1-1.4,1h-2.7l8.5-21.19a1.57,1.57,0,0,1,1.46-1h1.77a1.52,1.52,0,0,1,1.45,1ZM71,22.37l-3.43-8.51-3.41,8.51Z"/><path d="M87.75,31.6H77.1V30.18h4.57V10.74H79.1V9.39h8.65v1.35H85.21V30.17h2.54Z"/><path d="M91.86,32.3h-3.3A10.83,10.83,0,0,0,90,29.17a12.1,12.1,0,0,0,.43-3V11.73A1.72,1.72,0,0,1,92.15,10h8.6V7.7h4V10h8.45v1.48H95.37a1,1,0,0,0-.7.29,1,1,0,0,0-.29.7V26.19A13.14,13.14,0,0,1,94,29.43a9.38,9.38,0,0,1-.76,2A1.52,1.52,0,0,1,91.86,32.3Zm9-3.33H97.11q-.93-7.41-1.27-15h3.77Q99.9,21.46,100.86,29Zm5.74,0h-3.74q-1-7.41-1.27-15h3.74Q105.68,21.46,106.6,29Zm4.61,0h-3.75q.95-7.51,1.28-15h3.74Q112.17,21.56,111.21,29Z"/><path d="M136,32.27h-4.65V30.79h1.42a.94.94,0,0,0,.71-.3,1,1,0,0,0,.28-.69V25h-5v7.23h-3.95V25h-4.76a34.6,34.6,0,0,1-.76,6.08,1.49,1.49,0,0,1-1.46,1.15H115c.28-1.21.53-2.55.77-4a34.82,34.82,0,0,0,.35-5.33V9.78a1.69,1.69,0,0,1,1.71-1.71H136a1.69,1.69,0,0,1,1.71,1.71V30.53a1.67,1.67,0,0,1-.49,1.23A1.64,1.64,0,0,1,136,32.27ZM124.81,15.92V9.55h-3.72a1,1,0,0,0-1,1v5.38Zm0,7.64V17.37H120.1v6.19Zm8.91-7.64V10.54a1,1,0,0,0-.28-.71,1,1,0,0,0-.71-.28h-4v6.37Zm0,7.64V17.37h-5v6.19Z"/><path d="M152.32,32.27h-2.45V22.94H139.52V21.48h10.35V9.7h-9.18V8.22H163V9.7h-9.18V21.48h10.35v1.46H153.82v7.83A1.5,1.5,0,0,1,152.32,32.27Zm-4.64-12.19h-4a39.7,39.7,0,0,1-2.52-8.63h3.95A55.16,55.16,0,0,0,147.68,20.08Zm12.28,0h-4a48.47,48.47,0,0,0,2.5-8.63h3.95A38.53,38.53,0,0,1,160,20.08Z"/><path d="M188.06,18.54H166.59a1.19,1.19,0,0,1-1.1-.62,1.31,1.31,0,0,1-.18-.62,1,1,0,0,1,.21-.63L171,7.75h4.11q-5.15,8.72-5.15,8.82a.46.46,0,0,0,.08.23.5.5,0,0,0,.42.26H184.5a.5.5,0,0,0,.44-.23.8.8,0,0,0,.05-.29c0-.07-.89-2-2.67-5.72h3a1.49,1.49,0,0,1,1.35.85l2.48,5.11a1.25,1.25,0,0,1,.13.54,1.14,1.14,0,0,1-.21.65A1.12,1.12,0,0,1,188.06,18.54Zm-1.43,13.63H168a1.68,1.68,0,0,1-1.24-.51,1.65,1.65,0,0,1-.51-1.21V22.16a1.68,1.68,0,0,1,.51-1.24,1.71,1.71,0,0,1,1.24-.5h18.61a1.71,1.71,0,0,1,1.24.5,1.67,1.67,0,0,1,.5,1.24v8.29a1.64,1.64,0,0,1-.5,1.21A1.68,1.68,0,0,1,186.63,32.17Zm-3.2-1.48a1,1,0,0,0,.71-.29.94.94,0,0,0,.28-.7V22.86a.9.9,0,0,0-.28-.69,1,1,0,0,0-.71-.27H171.19a1,1,0,0,0-.7.27.91.91,0,0,0-.29.69V29.7a1,1,0,0,0,1,1Z"/><rect x="94.44" y="30.11" width="18.64" height="1.48"/></g></g></svg>